<svg width="24" height="24" viewBox="0 0 24 24" fill="none" xmlns="http://www.w3.org/2000/svg">
<g clip-path="url(#clip0_0_320)">
<path d="M10.8864 3.36667C12.3305 3.36535 13.7425 3.79236 14.9439 4.5937C16.1452 5.39503 17.0819 6.53467 17.6355 7.86846C18.189 9.20224 18.3345 10.6702 18.0536 12.0867C17.7727 13.5032 17.078 14.8046 16.0573 15.8262C15.0366 16.8478 13.7359 17.5437 12.3197 17.8259C10.9034 18.1081 9.43531 17.9639 8.10102 17.4116C6.76673 16.8593 5.62623 15.9236 4.8238 14.723C4.02137 13.5224 3.59306 12.1108 3.59306 10.6667C3.60182 8.73444 4.37282 6.88374 5.7385 5.51681C7.10419 4.14988 8.95418 3.37719 10.8864 3.36667ZM10.8864 2C9.17229 2 7.49668 2.50829 6.07146 3.4606C4.64623 4.4129 3.5354 5.76645 2.87944 7.35008C2.22348 8.9337 2.05185 10.6763 2.38626 12.3575C2.72066 14.0386 3.54608 15.5829 4.75814 16.7949C5.97019 18.007 7.51445 18.8324 9.19561 19.1668C10.8768 19.5012 12.6194 19.3296 14.203 18.6736C15.7866 18.0177 17.1402 16.9068 18.0925 15.4816C19.0448 14.0564 19.5531 12.3808 19.5531 10.6667C19.5531 8.36812 18.64 6.16372 17.0147 4.53841C15.3893 2.91309 13.1849 2 10.8864 2Z" fill="#F5821F"/>
<path d="M23.3336 22.1932L18.4203 17.2466L17.4736 18.1866L22.387 23.1332C22.4487 23.1954 22.522 23.2448 22.6029 23.2786C22.6837 23.3124 22.7703 23.33 22.8579 23.3303C22.9455 23.3306 23.0323 23.3136 23.1134 23.2804C23.1944 23.2472 23.2681 23.1983 23.3303 23.1366C23.3925 23.0749 23.4419 23.0015 23.4757 22.9207C23.5095 22.8399 23.527 22.7532 23.5273 22.6656C23.5276 22.578 23.5107 22.4912 23.4775 22.4102C23.4442 22.3291 23.3954 22.2554 23.3336 22.1932Z" fill="#F5821F"/>
</g>
<defs>
<clipPath id="clip0_0_320">
<rect width="24" height="24" fill="white"/>
</clipPath>
</defs>
</svg>
